<?xml version="1.0" encoding="utf-8"?>
<!-- Generator: Adobe Illustrator 20.1.0, SVG Export Plug-In . SVG Version: 6.00 Build 0)  -->
<svg version="1.1" id="Layer_5" xmlns="http://www.w3.org/2000/svg" xmlns:xlink="http://www.w3.org/1999/xlink" x="0px" y="0px"
	 viewBox="0 0 600 450" style="enable-background:new 0 0 600 450;" xml:space="preserve">
<style type="text/css">
	.st0{fill:none;stroke:#FFFFFF;stroke-width:4;stroke-miterlimit:10;}
	.st1{fill:none;}
	.st2{fill:none;stroke:#FFFFFF;stroke-width:8;stroke-linecap:round;stroke-linejoin:round;}
</style>
<title>Logo-webstie12-01</title>
<line class="st0" x1="321.6" y1="9.6" x2="416.4" y2="110.2"/>
<line class="st0" x1="416.6" y1="63.5" x2="321.6" y2="163.9"/>
<line class="st0" x1="416.6" y1="263" x2="321.6" y2="163.9"/>
<line class="st0" x1="321.6" y1="209.1" x2="416.4" y2="113.7"/>
<line class="st0" x1="416.6" y1="264.4" x2="321.6" y2="363.5"/>
<line class="st0" x1="321.6" y1="209.1" x2="416.5" y2="310.3"/>
<line class="st0" x1="449.3" y1="193.3" x2="416.6" y2="63.5"/>
<line class="st0" x1="416.6" y1="174.4" x2="532.3" y2="131.1"/>
<line class="st0" x1="416.5" y1="310.3" x2="455.6" y2="442.7"/>
<line class="st0" x1="455.6" y1="332.4" x2="321.6" y2="363.5"/>
<line class="st0" x1="455.6" y1="442.7" x2="496.3" y2="308.5"/>
<line class="st0" x1="455.6" y1="332.4" x2="590.4" y2="363.4"/>
<line class="st0" x1="496.1" y1="262.1" x2="590.4" y2="363.4"/>
<line class="st0" x1="496.3" y1="308.5" x2="591.3" y2="206"/>
<polygon class="st1" points="496.1,262.1 496.3,308.5 455.6,332.4 455.6,332.6 416.5,310.3 416.6,310.2 416.6,264.4 416.6,263 
	416.6,174.4 449.3,193.3 532.4,131.5 416.6,63.5 321.6,9.6 321.6,163.9 321.6,164 321.6,209.1 321.6,211.1 321.6,363.5 455.6,442.7 
	590.4,363.4 591.3,206 "/>
<g>
	<polygon class="st2" points="321.6,363.3 416.6,310.5 455.6,332.3 455.6,442.4 	"/>
	<polygon class="st2" points="321.6,163.8 416.4,110.2 416.7,63.4 321.6,9.4 	"/>
	<polygon class="st2" points="321.6,363.3 416.6,310.5 416.6,264.6 321.6,208.5 	"/>
	<polygon class="st2" points="416.6,264.6 321.6,208.5 321.6,163.8 416.4,110.2 	"/>
	<polygon class="st2" points="532.3,131.1 449.2,192.9 416.4,174.1 416.7,63.4 	"/>
	<polygon class="st2" points="590.4,363.1 496.3,308.3 496.1,261.8 591.3,205.8 	"/>
	<polygon class="st2" points="590.4,363.1 496.3,308.5 455.6,332.4 455.6,442.7 	"/>
</g>
<polygon class="st1" points="183.8,63.4 183.8,109.9 183.8,110.6 183.8,262.9 183.8,264.3 183.8,309.8 144.8,332.4 144.8,332.3 
	104.1,308.4 10,363.2 144.8,442.6 278.8,363.4 278.8,211 278.8,209 278.8,163.9 278.8,163.8 278.8,9.5 "/>
<g>
	<polygon class="st2" points="279.1,363.3 184.1,310.5 145.1,332.3 145.1,442.4 	"/>
	<polygon class="st2" points="279.1,163.8 184.3,110.2 184,63.4 279.1,9.4 	"/>
	<polygon class="st2" points="279.1,363.3 184.1,310.5 184.1,264.6 279.1,208.5 	"/>
	<polygon class="st2" points="184.1,264.6 279.1,208.5 279.1,163.8 184.3,110.2 	"/>
	<polygon class="st2" points="10.3,363.1 104.4,308.5 145.1,332.4 145.1,442.7 	"/>
</g>
<line class="st0" x1="183.8" y1="109.9" x2="279.1" y2="9.4"/>
<line class="st0" x1="183.8" y1="63.4" x2="279.1" y2="163.8"/>
<line class="st0" x1="183.8" y1="110.6" x2="279.1" y2="208.5"/>
<line class="st0" x1="184.1" y1="264.6" x2="279.1" y2="163.8"/>
<line class="st0" x1="278.8" y1="363.4" x2="184.1" y2="264.6"/>
<line class="st0" x1="184.1" y1="310.5" x2="279.1" y2="214.2"/>
<line class="st0" x1="144.8" y1="332.3" x2="10.3" y2="363.1"/>
<line class="st0" x1="104.1" y1="308.4" x2="145.1" y2="442.7"/>
<line class="st0" x1="183.8" y1="309.8" x2="144.8" y2="442.6"/>
<line class="st0" x1="144.8" y1="332.3" x2="279.1" y2="363.3"/>
</svg>
